<?xml version="1.0" encoding="UTF-8" standalone="no"?>
<svg
   xmlns:osb="http://www.openswatchbook.org/uri/2009/osb"
   xmlns:dc="http://purl.org/dc/elements/1.1/"
   xmlns:cc="http://creativecommons.org/ns#"
   xmlns:rdf="http://www.w3.org/1999/02/22-rdf-syntax-ns#"
   xmlns:svg="http://www.w3.org/2000/svg"
   xmlns="http://www.w3.org/2000/svg"
   enable-background="new"
   id="svg3553"
   version="1.1"
   height="20px"
   width="23px">
  <metadata
     id="metadata3561">
    <rdf:RDF>
      <cc:Work
         rdf:about="">
        <dc:format>image/svg+xml</dc:format>
        <dc:type
           rdf:resource="http://purl.org/dc/dcmitype/StillImage" />
        <dc:title></dc:title>
      </cc:Work>
    </rdf:RDF>
  </metadata>
  <defs
     id="defs3559">
    <linearGradient
       osb:paint="solid"
       id="linearGradient4760">
      <stop
         id="stop4762"
         offset="0"
         style="stop-color:#000000;stop-opacity:1;" />
    </linearGradient>
    <linearGradient
       osb:paint="solid"
       id="linearGradient4662">
      <stop
         id="stop4664"
         offset="0"
         style="stop-color:#000000;stop-opacity:1;" />
    </linearGradient>
  </defs>
  <g
     style="display:inline"
     id="layer2">
    <path
       id="path3555"
       d="M 6 -0.001953125 C 4.52 -0.001953125 4 0.56809375 4 1.9960938 L 4 2.9960938 L 2 2.9960938 C 0.5 2.9960938 0 3.6161406 0 4.9941406 L 0 17.982422 C 0 19.361422 0.61 20.000469 2 19.980469 L 21 19.980469 C 22.391 20.000469 23 19.361422 23 17.982422 L 23 4.9941406 C 23 3.6151406 22.5 2.9960938 21 2.9960938 L 19 2.9960938 L 19 1.9960938 C 19 0.56709375 18.48 -0.001953125 17 -0.001953125 L 16 -0.001953125 C 14.5 -0.001953125 14 0.53709375 14 1.9960938 L 14 2.9960938 L 9 2.9960938 L 9 1.9960938 C 9 0.53709375 8.5 -0.001953125 7 -0.001953125 L 6 -0.001953125 z M 8.2929688 5.4980469 C 9.4218295 5.4980469 10.337891 6.4037875 10.337891 7.5214844 C 10.337891 7.6985107 10.314604 7.8695342 10.271484 8.0332031 C 9.7301865 8.3210366 9.3084544 8.8009743 9.0996094 9.3808594 C 8.8522017 9.4861239 8.5792941 9.5449219 8.2929688 9.5449219 C 7.1640532 9.5449219 6.25 8.6391813 6.25 7.5214844 C 6.25 6.4037875 7.1640532 5.4980469 8.2929688 5.4980469 z M 14.607422 5.5058594 C 15.736283 5.5058594 16.650391 6.4116 16.650391 7.5292969 C 16.650391 8.6469938 15.736283 9.5546875 14.607422 9.5546875 C 14.314733 9.5546875 14.036879 9.492511 13.785156 9.3828125 C 13.578605 8.8083894 13.162476 8.3319378 12.628906 8.0429688 C 12.585696 7.8791646 12.5625 7.7065125 12.5625 7.5292969 C 12.5625 6.4116 13.478506 5.5058594 14.607422 5.5058594 z M 11.433594 8.1875 A 2.0440428 2.0237302 0 0 1 13.478516 10.210938 A 2.0440428 2.0237302 0 0 1 11.433594 12.234375 A 2.0440428 2.0237302 0 0 1 9.3886719 10.210938 A 2.0440428 2.0237302 0 0 1 11.433594 8.1875 z M 6.3496094 9.1113281 C 6.812007 9.6651473 7.5105442 10.017578 8.2929688 10.017578 C 8.5218324 10.017578 8.7443214 9.9882336 8.9550781 9.9316406 C 8.9445631 10.023764 8.9394531 10.116028 8.9394531 10.210938 C 8.9394531 10.620717 9.0403564 11.007475 9.21875 11.347656 C 8.5340978 11.886279 7.9808063 12.668093 7.6367188 13.595703 C 5.8255271 13.508501 4.5976562 13.070312 4.5976562 13.070312 C 4.5976562 11.397851 5.2979286 9.9319171 6.3496094 9.1113281 z M 16.550781 9.1191406 C 17.602462 9.9397566 18.302734 11.405663 18.302734 13.078125 C 18.302734 13.078125 17.03583 13.510413 15.232422 13.601562 C 14.888498 12.670979 14.334755 11.887577 13.648438 11.347656 C 13.826857 11.007475 13.927762 10.620716 13.927734 10.210938 C 13.927734 10.115812 13.922679 10.022026 13.912109 9.9296875 C 14.132807 9.9922025 14.366459 10.025391 14.607422 10.025391 C 15.389846 10.025391 16.088356 9.6729598 16.550781 9.1191406 z M 9.4902344 11.800781 C 9.952632 12.3546 10.651169 12.707031 11.433594 12.707031 C 12.216018 12.707031 12.914528 12.3546 13.376953 11.800781 C 14.428634 12.621397 15.130859 14.087303 15.130859 15.759766 C 15.130859 15.759766 13.54663 16.298828 11.400391 16.298828 C 9.2541508 16.298828 7.7363281 15.759766 7.7363281 15.759766 C 7.7363281 14.087303 8.4385536 12.621397 9.4902344 11.800781 z "
       style="fill:#7f8181;fill-rule:nonzero" />
    <g
       style="display:inline;opacity:1;fill:#000000;fill-opacity:1;fill-rule:nonzero"
       clip-path="none"
       id="g3658"
       transform="matrix(0.02731071,0,0,0.02703931,4.4420579,4.0506251)">
      <g
         style="fill:#000000;fill-opacity:1;fill-rule:nonzero"
         id="g3660" />
    </g>
  </g>
</svg>
